<svg aria-hidden="true" style="position: absolute; width: 0; height: 0; overflow: hidden;" version="1.1" xmlns="http://www.w3.org/2000/svg" xmlns:xlink="http://www.w3.org/1999/xlink">
<defs>
<symbol id="icon-x" viewBox="0 0 32 32">
<path fill="none" stroke="#f6f5ef" style="stroke: var(--color1, #f6f5ef)" stroke-linejoin="round" stroke-linecap="round" stroke-miterlimit="4" stroke-width="2.0800" d="M24 8l-16 16"></path>
<path fill="none" stroke="#f6f5ef" style="stroke: var(--color1, #f6f5ef)" stroke-linejoin="round" stroke-linecap="round" stroke-miterlimit="4" stroke-width="2.0800" d="M8 8l16 16"></path>
</symbol>
<symbol id="icon-burger-menu" viewBox="0 0 32 32">
<path fill="#f6f5ef" style="fill: var(--color1, #f6f5ef)" d="M2.667 7.993c0-0.733 0.595-1.327 1.327-1.327h10.68c0.352 0 0.689 0.14 0.938 0.389s0.389 0.586 0.389 0.938c0 0.352-0.14 0.689-0.389 0.938s-0.586 0.389-0.938 0.389h-10.68c-0.352 0-0.689-0.14-0.938-0.389s-0.389-0.586-0.389-0.938zM2.667 16c0-0.733 0.595-1.327 1.327-1.327h24.013c0.352 0 0.689 0.14 0.938 0.389s0.389 0.586 0.389 0.938c0 0.352-0.14 0.689-0.389 0.938s-0.586 0.389-0.938 0.389h-24.013c-0.352 0-0.689-0.14-0.938-0.389s-0.389-0.586-0.389-0.938zM3.993 22.68c-0.352 0-0.689 0.14-0.938 0.389s-0.389 0.586-0.389 0.938c0 0.352 0.14 0.689 0.389 0.938s0.586 0.389 0.938 0.389h16.013c0.352 0 0.689-0.14 0.938-0.389s0.389-0.586 0.389-0.938c0-0.352-0.14-0.689-0.389-0.938s-0.586-0.389-0.938-0.389h-16.013z"></path>
</symbol>
<symbol id="icon-up" viewBox="0 0 32 32">
<path fill="#f6f5ef" style="fill: var(--color1, #f6f5ef)" d="M7.467 9.778l8.533-9.778 8.533 9.778h-7.055v22.222h-2.956v-22.222h-7.055z"></path>
</symbol>
<symbol id="icon-left" viewBox="0 0 32 32">
<path fill="#f6f5ef" style="fill: var(--color1, #f6f5ef)" d="M9.778 8.302l-9.778 7.698 9.778 7.698v-6.365h22.222v-2.667h-22.222v-6.365z"></path>
</symbol>
<symbol id="icon-right" viewBox="0 0 32 32">
<path fill="#f6f5ef" style="fill: var(--color1, #f6f5ef)" d="M22.222 8.302l9.778 7.698-9.778 7.698v-6.365h-22.222v-2.667h22.222v-6.365z"></path>
</symbol>
<symbol id="icon-youtube" viewBox="0 0 22 22">
<path d="M16.665 4.12489C15.73 4.06989 13.805 4.01489 10.89 4.01489H10.505C7.70001 4.01489 5.83004 4.06989 4.89504 4.17989C3.63004 4.28989 2.75001 4.61989 2.25501 5.05989C1.81501 5.44489 1.48502 6.15989 1.37502 7.09489C1.32002 7.69989 1.26501 8.96489 1.26501 10.8899V11.1649C1.26501 12.9799 1.32001 14.2449 1.43001 14.8499C1.59501 15.7299 1.87003 16.3899 2.42003 16.7749C2.97003 17.2149 3.90502 17.4899 5.22502 17.5999C6.16002 17.6549 8.08502 17.7099 11 17.7099H11.385C14.19 17.7099 16.06 17.6549 16.995 17.5449C18.26 17.4349 19.14 17.1049 19.635 16.6649C20.075 16.2799 20.405 15.5649 20.515 14.6299C20.57 14.0249 20.625 12.7599 20.625 10.8349V10.5599C20.625 8.74489 20.57 7.47989 20.46 6.87489C20.295 5.99489 20.02 5.33489 19.47 4.94989C18.92 4.50989 17.985 4.23489 16.665 4.12489ZM14.52 10.8899L8.47004 14.5199V7.25989L14.52 10.8899Z"/>
</symbol>
<symbol id="icon-instagram" viewBox="0 0 20 20">
<path d="M14.9892 3.8934C14.7677 3.8934 14.5512 3.95908 14.367 4.08215C14.1828 4.20522 14.0392 4.38014 13.9545 4.58479C13.8697 4.78944 13.8475 5.01464 13.8907 5.2319C13.9339 5.44916 14.0406 5.64872 14.1973 5.80536C14.3539 5.96199 14.5535 6.06866 14.7707 6.11188C14.988 6.15509 15.2132 6.13291 15.4178 6.04814C15.6225 5.96337 15.7974 5.81982 15.9205 5.63564C16.0435 5.45145 16.1092 5.23491 16.1092 5.0134C16.1092 4.71635 15.9912 4.43148 15.7812 4.22144C15.5711 4.0114 15.2863 3.8934 14.9892 3.8934ZM19.2825 6.15206C19.2644 5.37768 19.1194 4.61151 18.8532 3.88406C18.6159 3.26165 18.2465 2.69806 17.7705 2.23206C17.3084 1.75366 16.7435 1.38663 16.1185 1.15873C15.393 0.884479 14.626 0.736125 13.8505 0.720062C12.8612 0.664062 12.5439 0.664062 10.0052 0.664062C7.46654 0.664062 7.14921 0.664062 6.15988 0.720062C5.38442 0.736125 4.6174 0.884479 3.89188 1.15873C3.26811 1.38893 2.70368 1.75565 2.23988 2.23206C1.76147 2.69423 1.39444 3.25914 1.16654 3.88406C0.892292 4.60958 0.743938 5.37661 0.727875 6.15206C0.671875 7.1414 0.671875 7.45873 0.671875 9.9974C0.671875 12.5361 0.671875 12.8534 0.727875 13.8427C0.743938 14.6182 0.892292 15.3852 1.16654 16.1107C1.39444 16.7357 1.76147 17.3006 2.23988 17.7627C2.70368 18.2391 3.26811 18.6059 3.89188 18.8361C4.6174 19.1103 5.38442 19.2587 6.15988 19.2747C7.14921 19.3307 7.46654 19.3307 10.0052 19.3307C12.5439 19.3307 12.8612 19.3307 13.8505 19.2747C14.626 19.2587 15.393 19.1103 16.1185 18.8361C16.7435 18.6082 17.3084 18.2411 17.7705 17.7627C18.2486 17.2985 18.6183 16.7344 18.8532 16.1107C19.1194 15.3833 19.2644 14.6171 19.2825 13.8427C19.2825 12.8534 19.3385 12.5361 19.3385 9.9974C19.3385 7.45873 19.3385 7.1414 19.2825 6.15206ZM17.6025 13.7307C17.5957 14.3232 17.4884 14.9102 17.2852 15.4667C17.1362 15.8729 16.8968 16.2399 16.5852 16.5401C16.2825 16.8485 15.9162 17.0874 15.5119 17.2401C14.9553 17.4433 14.3683 17.5506 13.7759 17.5574C12.8425 17.6041 12.4972 17.6134 10.0425 17.6134C7.58788 17.6134 7.24254 17.6134 6.30921 17.5574C5.69404 17.5689 5.0815 17.4742 4.49854 17.2774C4.11194 17.1169 3.76247 16.8787 3.47188 16.5774C3.16209 16.2776 2.92573 15.9102 2.78121 15.5041C2.55334 14.9395 2.42696 14.3392 2.40788 13.7307C2.40788 12.7974 2.35188 12.4521 2.35188 9.9974C2.35188 7.54273 2.35188 7.1974 2.40788 6.26406C2.41206 5.65838 2.52263 5.05815 2.73454 4.49073C2.89885 4.09678 3.15106 3.74561 3.47188 3.46406C3.75543 3.14315 4.10588 2.88829 4.49854 2.7174C5.06746 2.5121 5.66707 2.4048 6.27188 2.40006C7.20521 2.40006 7.55054 2.34406 10.0052 2.34406C12.4599 2.34406 12.8052 2.34406 13.7385 2.40006C14.331 2.40686 14.918 2.51416 15.4745 2.7174C15.8987 2.8748 16.2794 3.13072 16.5852 3.46406C16.8911 3.75076 17.1301 4.10128 17.2852 4.49073C17.4926 5.05907 17.6 5.65906 17.6025 6.26406C17.6492 7.1974 17.6585 7.54273 17.6585 9.9974C17.6585 12.4521 17.6492 12.7974 17.6025 13.7307ZM10.0052 5.2094C9.05863 5.21124 8.13384 5.49362 7.34769 6.02085C6.56153 6.54809 5.9493 7.29651 5.58833 8.17157C5.22737 9.04662 5.13388 10.009 5.31968 10.9372C5.50548 11.8654 5.96223 12.7176 6.63221 13.3863C7.3022 14.055 8.15535 14.5101 9.08388 14.6941C10.0124 14.8781 10.9746 14.7827 11.849 14.42C12.7233 14.0574 13.4706 13.4437 13.9963 12.6565C14.522 11.8693 14.8025 10.944 14.8025 9.9974C14.8038 9.3675 14.6805 8.74356 14.4397 8.16149C14.1989 7.57942 13.8455 7.05069 13.3996 6.60571C12.9538 6.16074 12.4244 5.8083 11.8418 5.56866C11.2593 5.32903 10.6351 5.20693 10.0052 5.2094ZM10.0052 13.1054C9.39051 13.1054 8.78961 12.9231 8.2785 12.5816C7.76739 12.2401 7.36903 11.7547 7.13379 11.1868C6.89855 10.6189 6.83701 9.99395 6.95693 9.39106C7.07685 8.78816 7.37286 8.23437 7.80752 7.79971C8.24218 7.36505 8.79598 7.06904 9.39887 6.94912C10.0018 6.82919 10.6267 6.89074 11.1946 7.12598C11.7625 7.36122 12.2479 7.75958 12.5894 8.27068C12.9309 8.78179 13.1132 9.38269 13.1132 9.9974C13.1132 10.4055 13.0328 10.8097 12.8766 11.1868C12.7204 11.5639 12.4915 11.9065 12.2029 12.1951C11.9143 12.4837 11.5717 12.7126 11.1946 12.8688C10.8175 13.025 10.4134 13.1054 10.0052 13.1054Z" />
</symbol>
<symbol id="icon-facebook" viewBox="0 0 11 20">
<path d="M9.03143 3.50125H10.8592V0.409578C9.97424 0.317554 9.08505 0.272121 8.19531 0.273467C5.55087 0.273467 3.74254 1.88736 3.74254 4.84291V7.39013H0.757812V10.8512H3.74254V19.7179H7.32031V10.8512H10.2953L10.7425 7.39013H7.32031V5.18319C7.32031 4.16236 7.59254 3.50125 9.03143 3.50125Z"/>
</symbol>
</defs>
</svg>